<svg width="190" height="49" viewBox="0 0 190 49" fill="none" xmlns="http://www.w3.org/2000/svg">
<path d="M0.798767 14.7178C0.798767 10.8496 2.1601 7.5542 4.88275 4.83154C7.62201 2.10889 10.9174 0.747559 14.769 0.747559C18.6205 0.747559 21.916 2.10889 24.6552 4.83154C27.3779 7.5542 28.7392 10.8496 28.7392 14.7178C28.7392 18.5693 27.3779 21.8564 24.6552 24.5791C21.916 27.3018 18.6205 28.6631 14.769 28.6631H5.55511V33.9424C5.55511 34.5898 5.32269 35.146 4.85785 35.6108C4.39301 36.0757 3.82855 36.3081 3.16449 36.3081C2.51703 36.3081 1.96088 36.0757 1.49603 35.6108C1.03119 35.146 0.798767 34.5898 0.798767 33.9424V14.7178ZM5.55511 23.9316H14.769C17.309 23.9316 19.4838 23.0269 21.2934 21.2173C23.0864 19.4243 23.9828 17.2578 23.9828 14.7178C23.9828 12.1611 23.0864 9.98633 21.2934 8.19336C19.4838 6.38379 17.309 5.479 14.769 5.479C12.2289 5.479 10.0541 6.38379 8.24457 8.19336C6.4516 9.98633 5.55511 12.1611 5.55511 14.7178V23.9316ZM45.2993 7.86963C49.2338 7.86963 52.5873 9.25586 55.3598 12.0283C58.1323 14.8008 59.5185 18.1543 59.5185 22.0889V33.9175C59.5185 34.5815 59.2861 35.146 58.8212 35.6108C58.3564 36.0757 57.8002 36.3081 57.1528 36.3081C56.4887 36.3081 55.9326 36.0757 55.4843 35.6108C55.0195 35.146 54.787 34.5815 54.787 33.9175V32.6724C52.081 35.0962 48.9184 36.3081 45.2993 36.3081C41.3813 36.3081 38.0278 34.9136 35.2387 32.1245C32.4662 29.3521 31.08 26.0068 31.08 22.0889C31.08 18.1543 32.4662 14.8008 35.2387 12.0283C38.0278 9.25586 41.3813 7.86963 45.2993 7.86963ZM51.998 15.3652C50.1552 13.5225 47.9223 12.6011 45.2993 12.6011C42.6762 12.6011 40.4433 13.5225 38.6005 15.3652C36.7411 17.2246 35.8115 19.4658 35.8115 22.0889C35.8115 24.6953 36.7411 26.9282 38.6005 28.7876C40.4433 30.6304 42.6762 31.5518 45.2993 31.5518C47.9223 31.5518 50.1552 30.6304 51.998 28.7876C53.8574 26.9282 54.787 24.6953 54.787 22.0889C54.787 19.4658 53.8574 17.2246 51.998 15.3652ZM92.9374 34.1665C92.9374 38.0845 91.5512 41.438 88.7787 44.2271C86.0063 46.9995 82.6528 48.3857 78.7182 48.3857C75.9125 48.3857 73.3393 47.6221 70.9985 46.0947C68.6411 44.5674 66.8896 42.5171 65.7441 39.9438C65.4785 39.3628 65.4619 38.7651 65.6943 38.1509C65.9267 37.5366 66.3417 37.0967 66.9394 36.8311C67.537 36.5654 68.1347 36.5488 68.7324 36.7812C69.3466 37.0137 69.7866 37.4287 70.0522 38.0264C70.8159 39.7363 71.9863 41.106 73.5634 42.1353C75.124 43.1479 76.8422 43.6543 78.7182 43.6543C81.3412 43.6543 83.5742 42.7246 85.4169 40.8652C87.2763 39.0225 88.206 36.7896 88.206 34.1665V32.6724C85.4999 35.0962 82.3373 36.3081 78.7182 36.3081C74.8002 36.3081 71.4467 34.9136 68.6577 32.1245C65.8852 29.3521 64.499 26.0068 64.499 22.0889V10.2354C64.499 9.57129 64.7314 9.00684 65.1962 8.54199C65.6611 8.09375 66.2172 7.86963 66.8647 7.86963C67.5287 7.86963 68.0849 8.09375 68.5331 8.54199C68.998 9.00684 69.2304 9.57129 69.2304 10.2354V22.0889C69.2304 24.6953 70.1601 26.9282 72.0195 28.7876C73.8622 30.6304 76.0952 31.5518 78.7182 31.5518C81.3412 31.5518 83.5742 30.6304 85.4169 28.7876C87.2763 26.9282 88.206 24.6953 88.206 22.0889V10.2354C88.206 9.57129 88.4384 9.00684 88.9033 8.54199C89.3515 8.09375 89.9077 7.86963 90.5717 7.86963C91.2192 7.86963 91.7753 8.09375 92.2402 8.54199C92.705 9.00684 92.9374 9.57129 92.9374 10.2354V34.1665Z" fill="white"/>
<path d="M112.137 36.3081C108.219 36.3081 104.866 34.9136 102.077 32.1245C99.3041 29.3521 97.9179 26.0068 97.9179 22.0889V3.11328C97.9179 2.46582 98.1503 1.90967 98.6152 1.44482C99.08 0.97998 99.6362 0.747559 100.284 0.747559C100.948 0.747559 101.504 0.97998 101.952 1.44482C102.417 1.90967 102.649 2.46582 102.649 3.11328V11.4805C105.355 9.07324 108.518 7.86963 112.137 7.86963C116.072 7.86963 119.425 9.25586 122.198 12.0283C124.97 14.8008 126.356 18.1543 126.356 22.0889C126.356 26.0068 124.97 29.3521 122.198 32.1245C119.425 34.9136 116.072 36.3081 112.137 36.3081ZM105.438 28.7876C107.281 30.6304 109.514 31.5518 112.137 31.5518C114.76 31.5518 116.993 30.6304 118.836 28.7876C120.695 26.9282 121.625 24.6953 121.625 22.0889C121.625 19.4658 120.695 17.2246 118.836 15.3652C116.993 13.5225 114.76 12.6011 112.137 12.6011C109.514 12.6011 107.281 13.5225 105.438 15.3652C103.579 17.2246 102.649 19.4658 102.649 22.0889C102.649 24.6953 103.579 26.9282 105.438 28.7876ZM143.066 12.6011C140.443 12.6011 138.21 13.5225 136.367 15.3652C134.508 17.2246 133.578 19.4658 133.578 22.0889C133.578 24.6953 134.508 26.9282 136.367 28.7876C138.21 30.6304 140.443 31.5518 143.066 31.5518C145.689 31.5518 147.922 30.6304 149.765 28.7876C151.624 26.9282 152.554 24.6953 152.554 22.0889C152.554 19.4658 151.624 17.2246 149.765 15.3652C147.922 13.5225 145.689 12.6011 143.066 12.6011ZM133.005 12.0283C135.794 9.25586 139.148 7.86963 143.066 7.86963C147 7.86963 150.354 9.25586 153.126 12.0283C155.899 14.8008 157.285 18.1543 157.285 22.0889C157.285 26.0068 155.899 29.3521 153.126 32.1245C150.354 34.9136 147 36.3081 143.066 36.3081C139.148 36.3081 135.794 34.9136 133.005 32.1245C130.233 29.3521 128.847 26.0068 128.847 22.0889C128.847 18.1543 130.233 14.8008 133.005 12.0283ZM161.02 10.2354C161.02 9.57129 161.253 9.00684 161.718 8.54199C162.183 8.09375 162.739 7.86963 163.386 7.86963C164.05 7.86963 164.606 8.09375 165.055 8.54199C165.519 9.00684 165.752 9.57129 165.752 10.2354V10.3101C165.752 12.9331 166.682 15.166 168.541 17.0088C170.384 18.8516 172.608 19.7812 175.215 19.7979H175.265C177.871 19.7812 180.096 18.8516 181.938 17.0088C183.798 15.166 184.727 12.9331 184.727 10.3101V10.2354C184.727 9.57129 184.96 9.00684 185.425 8.54199C185.873 8.09375 186.429 7.86963 187.093 7.86963C187.741 7.86963 188.297 8.09375 188.762 8.54199C189.227 9.00684 189.459 9.57129 189.459 10.2354V10.3101C189.459 14.228 188.073 17.5815 185.3 20.3706C184.669 20.9849 183.989 21.541 183.258 22.0391C187.392 24.6289 189.459 28.5635 189.459 33.8428V33.9175C189.459 34.5815 189.227 35.146 188.762 35.6108C188.297 36.0757 187.741 36.3081 187.093 36.3081C186.429 36.3081 185.873 36.0757 185.425 35.6108C184.96 35.146 184.727 34.5815 184.727 33.9175V33.8428C184.727 31.7012 184.196 29.8667 183.134 28.3394C182.171 26.9448 180.859 25.9238 179.199 25.2764C177.971 24.7783 176.659 24.5293 175.265 24.5293H175.215C173.853 24.5293 172.575 24.7617 171.38 25.2266L171.28 25.2764C169.62 25.9238 168.309 26.9448 167.346 28.3394C166.283 29.8667 165.752 31.7012 165.752 33.8428V33.9175C165.752 34.5815 165.519 35.146 165.055 35.6108C164.606 36.0757 164.05 36.3081 163.386 36.3081C162.739 36.3081 162.183 36.0757 161.718 35.6108C161.253 35.146 161.02 34.5815 161.02 33.9175V33.8428C161.02 28.5635 163.087 24.6289 167.221 22.0391C166.491 21.541 165.81 20.9849 165.179 20.3706C162.407 17.5815 161.02 14.228 161.02 10.3101V10.2354Z" fill="#00A3FF"/>
</svg>
