<svg width="530" height="648" viewBox="0 0 530 648" fill="none" xmlns="http://www.w3.org/2000/svg">
<path d="M530 294.545C530 458.018 416.933 610.887 265 648C113.067 610.887 0 458.018 0 294.545V117.818L265 0L530 117.818V294.545ZM265 589.091C375.417 559.636 471.111 428.269 471.111 301.025V156.109L265 64.2109L58.8889 156.109V301.025C58.8889 428.269 154.583 559.636 265 589.091ZM347.444 294.545V250.364C347.444 209.127 306.222 176.727 265 176.727C223.778 176.727 182.556 209.127 182.556 250.364V294.545C164.889 294.545 147.222 312.218 147.222 329.891V432.982C147.222 453.6 164.889 471.273 182.556 471.273H344.5C365.111 471.273 382.778 453.6 382.778 435.927V332.836C382.778 312.218 365.111 294.545 347.444 294.545ZM309.167 294.545H220.833V250.364C220.833 226.8 241.444 212.073 265 212.073C288.556 212.073 309.167 226.8 309.167 250.364V294.545Z" fill="url(#paint0_linear_110_134)" fill-opacity="0.14"/>
<defs>
<linearGradient id="paint0_linear_110_134" x1="265" y1="0" x2="265" y2="648" gradientUnits="userSpaceOnUse">
<stop stop-color="#903AFF"/>
<stop offset="1" stop-color="#FF26B9"/>
</linearGradient>
</defs>
</svg>
