<svg width="232" height="50" viewBox="0 0 232 50" fill="none" xmlns="http://www.w3.org/2000/svg">
<path d="M21.1192 4.30049H25.2192L14.8872 33.0005H9.55715L0.291152 4.30049H4.39115L10.2952 22.8735C10.6778 24.1308 11.0195 25.4702 11.3202 26.8915C11.6482 28.2855 11.8532 29.1875 11.9352 29.5975H12.6732C12.7552 29.1875 12.9738 28.2855 13.3292 26.8915C13.7118 25.4702 14.1218 24.1308 14.5592 22.8735L21.1192 4.30049ZM36.0537 33.4925C33.5391 33.4925 31.6941 32.7955 30.5187 31.4015C29.3434 29.9802 28.7557 27.8208 28.7557 24.9235V11.8445H32.8557V24.8825C32.8557 26.6865 33.1427 28.1078 33.7167 29.1465C34.3181 30.1852 35.3841 30.7045 36.9147 30.7045C38.9101 30.7045 40.6457 30.1852 42.1217 29.1465V11.8445H46.2217V28.8595L47.1647 33.3285H45.1557C44.8004 33.3285 44.4724 33.2465 44.1717 33.0825C43.8984 32.9458 43.6524 32.6725 43.4337 32.2625L42.8597 31.1965H42.2037C41.3564 32.0985 40.4954 32.6998 39.6207 33.0005C38.7461 33.3285 37.5571 33.4925 36.0537 33.4925ZM57.3587 26.7275C56.812 27.3562 56.2243 27.9985 55.5957 28.6545C54.967 29.3105 54.557 29.7342 54.3657 29.9255L54.6527 30.5405C54.8987 30.4858 55.4317 30.3765 56.2517 30.2125C57.0717 30.0485 57.7823 29.9665 58.3837 29.9665H68.0187V33.0005H50.1017V29.9665L60.3517 18.1175C60.8983 17.4888 61.4997 16.8465 62.1557 16.1905C62.8117 15.5072 63.2353 15.0698 63.4267 14.8785L63.0577 14.2225C62.9483 14.2498 62.7023 14.3182 62.3197 14.4275C61.937 14.5368 61.445 14.6462 60.8437 14.7555C60.2697 14.8375 59.682 14.8785 59.0807 14.8785H51.3317V11.8445H67.6087V14.8785L57.3587 26.7275ZM79.3359 33.4925C76.8213 33.4925 74.9763 32.7955 73.8009 31.4015C72.6256 29.9802 72.0379 27.8208 72.0379 24.9235V11.8445H76.1379V24.8825C76.1379 26.6865 76.4249 28.1078 76.9989 29.1465C77.6003 30.1852 78.6663 30.7045 80.1969 30.7045C82.1923 30.7045 83.9279 30.1852 85.4039 29.1465V11.8445H89.5039V28.8595L90.4469 33.3285H88.4379C88.0826 33.3285 87.7546 33.2465 87.4539 33.0825C87.1806 32.9458 86.9346 32.6725 86.7159 32.2625L86.1419 31.1965H85.4859C84.6386 32.0985 83.7776 32.6998 82.9029 33.0005C82.0283 33.3285 80.8393 33.4925 79.3359 33.4925ZM112.695 27.9575C112.695 28.8868 112.791 29.5565 112.982 29.9665C113.173 30.3492 113.597 30.6362 114.253 30.8275L113.679 33.2875C113.652 33.3148 113.542 33.3558 113.351 33.4105C113.187 33.4652 112.955 33.4925 112.654 33.4925C111.861 33.4652 111.26 33.3285 110.85 33.0825C110.44 32.8638 110.044 32.4128 109.661 31.7295L109.046 30.6225H108.39C107.652 31.6065 106.805 32.3308 105.848 32.7955C104.891 33.2602 103.73 33.4925 102.363 33.4925C100.258 33.4925 98.5909 32.9458 97.3609 31.8525C96.1309 30.7318 95.5159 29.1328 95.5159 27.0555C95.5159 24.9235 96.1992 23.3382 97.5659 22.2995C98.9326 21.2608 101.065 20.6322 103.962 20.4135L108.636 20.0445V18.6915C108.636 17.0515 108.281 15.8898 107.57 15.2065C106.859 14.4958 105.547 14.1405 103.634 14.1405C102.24 14.1405 100.313 14.4412 97.8529 15.0425L97.1149 12.6235C98.0442 12.2682 99.2196 11.9675 100.641 11.7215C102.062 11.4755 103.292 11.3525 104.331 11.3525C107.092 11.3525 109.169 11.9128 110.563 13.0335C111.984 14.1268 112.695 15.8898 112.695 18.3225V27.9575ZM104.7 22.8735C101.365 23.1195 99.6979 24.4452 99.6979 26.8505C99.6979 29.4198 100.983 30.7045 103.552 30.7045C105.001 30.7045 106.203 30.3628 107.16 29.6795C108.144 28.9688 108.636 27.8208 108.636 26.2355V22.5865L104.7 22.8735ZM123.824 2.66049V33.0005H119.724V2.66049H123.824Z" fill="white"/>
<path d="M149.723 19.5525C150.133 19.6072 150.543 19.6482 150.953 19.6755C151.363 19.7028 151.759 19.7165 152.142 19.7165C153.071 19.7165 153.932 19.5798 154.725 19.3065C155.545 19.0332 156.242 18.6232 156.816 18.0765C157.417 17.5298 157.882 16.8602 158.21 16.0675C158.538 15.2748 158.702 14.3455 158.702 13.2795C158.702 11.1475 158.059 9.54849 156.775 8.48249C155.517 7.41649 153.864 6.88349 151.814 6.88349H149.723V19.5525ZM140.908 33.0005V31.1145L144.68 30.2125V7.08849L140.908 6.18649V4.30049H151.814C159.85 4.30049 163.868 7.29349 163.868 13.2795C163.868 16.3135 162.815 18.5822 160.711 20.0855C158.633 21.5615 155.886 22.2995 152.47 22.2995C151.513 22.2995 150.597 22.2312 149.723 22.0945V30.2125L154.725 31.1145V33.0005H140.908ZM165.39 33.0005V31.2375L168.875 30.4175V3.52149H165.39V1.75849L171.95 0.200488H173.795V30.4175L177.28 31.2375V33.0005H165.39ZM178.675 14.2635V12.5005H187.039V26.6455C187.039 29.3788 188.214 30.7455 190.565 30.7455C192.423 30.7455 194.173 30.0485 195.813 28.6545V15.0835L193.148 14.2635V12.5005H200.692V30.3355H203.89V31.6885C203.234 32.2625 202.496 32.7272 201.676 33.0825C200.883 33.4378 200.09 33.6155 199.298 33.6155C198.669 33.6155 198.109 33.4925 197.617 33.2465C197.152 33.0278 196.797 32.7408 196.551 32.3855C196.305 32.0302 196.127 31.7432 196.018 31.5245C195.908 31.2785 195.84 31.0735 195.813 30.9095C193.653 32.7135 191.33 33.6155 188.843 33.6155C186.656 33.6155 184.989 33.0278 183.841 31.8525C182.72 30.6772 182.16 29.1192 182.16 27.1785V15.0835L178.675 14.2635ZM206.697 32.6725V26.8095H208.583L210.141 31.1145C211.097 31.2785 212.163 31.3605 213.339 31.3605C215.088 31.3605 216.318 31.1418 217.029 30.7045C217.767 30.2398 218.136 29.4608 218.136 28.3675C218.136 27.5202 217.739 26.8232 216.947 26.2765C216.154 25.7025 214.787 25.0328 212.847 24.2675C211.015 23.5022 209.594 22.6002 208.583 21.5615C207.571 20.4955 207.066 19.1562 207.066 17.5435C207.066 15.7122 207.831 14.3182 209.362 13.3615C210.92 12.3775 212.942 11.8855 215.43 11.8855C217.589 11.8855 219.543 12.1452 221.293 12.6645V18.2405H219.571L218.218 14.3865C217.425 14.1678 216.496 14.0585 215.43 14.0585C213.954 14.0585 212.915 14.2908 212.314 14.7555C211.74 15.1928 211.453 15.8625 211.453 16.7645C211.453 17.2838 211.644 17.7485 212.027 18.1585C212.409 18.5685 212.833 18.9102 213.298 19.1835C213.79 19.4295 214.569 19.7848 215.635 20.2495C218.122 21.2882 219.899 22.3405 220.965 23.4065C222.058 24.4452 222.605 25.7982 222.605 27.4655C222.605 29.4608 221.798 30.9915 220.186 32.0575C218.573 33.0962 216.468 33.6155 213.872 33.6155C211.302 33.6155 208.911 33.3012 206.697 32.6725Z" fill="#FF0000"/>
<path d="M143.103 38.3005H145.468C146.671 38.3005 147.562 38.6342 148.141 39.3015C148.728 39.9688 149.021 40.9185 149.021 42.1505C149.021 43.3752 148.735 44.3248 148.163 44.9995C147.591 45.6668 146.693 46.0005 145.468 46.0005H143.103V38.3005ZM145.501 45.1205C146.366 45.1205 146.975 44.8602 147.327 44.3395C147.686 43.8115 147.866 43.0818 147.866 42.1505C147.866 41.2118 147.683 40.4748 147.316 39.9395C146.957 39.4042 146.344 39.1365 145.479 39.1365H144.203V45.1205H145.501ZM150.897 41.0175C151.323 40.4675 151.942 40.1925 152.756 40.1925C154.34 40.1925 155.132 41.1275 155.132 42.9975V43.4045H151.425C151.425 44.7025 151.942 45.3515 152.976 45.3515C153.284 45.3515 153.567 45.3295 153.823 45.2855C154.087 45.2342 154.381 45.1535 154.703 45.0435L154.923 45.7035C154.271 45.9895 153.581 46.1325 152.855 46.1325C152.005 46.1325 151.359 45.8648 150.919 45.3295C150.479 44.7942 150.259 44.0718 150.259 43.1625C150.259 42.2752 150.472 41.5602 150.897 41.0175ZM151.733 41.4025C151.55 41.7105 151.447 42.1505 151.425 42.7225H154.032C154.032 42.1578 153.941 41.7215 153.757 41.4135C153.574 41.0982 153.237 40.9405 152.745 40.9405C152.261 40.9405 151.924 41.0945 151.733 41.4025ZM160.424 44.4055C160.424 44.9922 160.226 45.4285 159.83 45.7145C159.434 45.9932 158.935 46.1325 158.334 46.1325C157.652 46.1325 156.97 45.9638 156.288 45.6265L156.574 44.9445C156.904 45.0838 157.19 45.1938 157.432 45.2745C157.674 45.3478 157.934 45.3845 158.213 45.3845C158.558 45.3845 158.833 45.3222 159.038 45.1975C159.251 45.0655 159.357 44.8528 159.357 44.5595C159.357 44.3542 159.298 44.1892 159.181 44.0645C159.064 43.9398 158.825 43.8042 158.466 43.6575L157.773 43.3825C157.392 43.2358 157.091 43.0415 156.871 42.7995C156.651 42.5575 156.541 42.2422 156.541 41.8535C156.541 41.3402 156.735 40.9368 157.124 40.6435C157.513 40.3428 158 40.1925 158.587 40.1925C159.1 40.1925 159.665 40.3098 160.281 40.5445L160.05 41.2375C159.529 41.0395 159.031 40.9405 158.554 40.9405C157.879 40.9405 157.542 41.1972 157.542 41.7105C157.542 41.9158 157.612 42.0772 157.751 42.1945C157.89 42.3045 158.14 42.4365 158.499 42.5905L159.247 42.9205C159.65 43.0965 159.947 43.2982 160.138 43.5255C160.329 43.7455 160.424 44.0388 160.424 44.4055ZM161.93 38.3995C161.93 38.2088 161.996 38.0475 162.128 37.9155C162.26 37.7835 162.422 37.7175 162.612 37.7175C162.803 37.7175 162.964 37.7835 163.096 37.9155C163.228 38.0475 163.294 38.2088 163.294 38.3995C163.294 38.5902 163.228 38.7515 163.096 38.8835C162.964 39.0155 162.803 39.0815 162.612 39.0815C162.422 39.0815 162.26 39.0155 162.128 38.8835C161.996 38.7515 161.93 38.5902 161.93 38.3995ZM162.062 40.3245H163.162V46.0005H162.062V40.3245ZM168.505 46.1875C168.512 46.0042 168.534 45.8245 168.571 45.6485C168.615 45.4652 168.644 45.3478 168.659 45.2965L168.483 45.1975C168.307 45.5055 168.076 45.7402 167.79 45.9015C167.504 46.0555 167.199 46.1325 166.877 46.1325C166.173 46.1325 165.619 45.8722 165.216 45.3515C164.812 44.8235 164.611 44.0975 164.611 43.1735C164.611 42.2348 164.834 41.5052 165.282 40.9845C165.729 40.4565 166.382 40.1925 167.24 40.1925C167.782 40.1925 168.563 40.3025 169.583 40.5225V46.2535C169.583 46.7008 169.473 47.0858 169.253 47.4085C169.033 47.7385 168.736 47.9878 168.362 48.1565C167.988 48.3325 167.573 48.4205 167.119 48.4205C166.29 48.4205 165.531 48.2555 164.842 47.9255L165.095 47.2215C165.161 47.2508 165.307 47.3095 165.535 47.3975C165.762 47.4855 165.982 47.5515 166.195 47.5955C166.415 47.6468 166.631 47.6725 166.844 47.6725C167.364 47.6725 167.764 47.5368 168.043 47.2655C168.329 46.9942 168.483 46.6348 168.505 46.1875ZM167.174 45.3845C167.533 45.3845 167.841 45.2892 168.098 45.0985C168.354 44.9078 168.483 44.5998 168.483 44.1745V41.0725C168.197 41.0138 167.984 40.9772 167.845 40.9625C167.713 40.9478 167.515 40.9405 167.251 40.9405C166.715 40.9405 166.334 41.1348 166.107 41.5235C165.887 41.9122 165.777 42.4622 165.777 43.1735C165.777 43.6428 165.81 44.0352 165.876 44.3505C165.942 44.6658 166.074 44.9188 166.272 45.1095C166.477 45.2928 166.778 45.3845 167.174 45.3845ZM171.718 40.2365C171.813 40.2365 171.897 40.2585 171.971 40.3025C172.051 40.3392 172.121 40.4125 172.18 40.5225L172.334 40.8085H172.51C172.737 40.5665 172.957 40.4052 173.17 40.3245C173.382 40.2365 173.672 40.1925 174.039 40.1925C174.809 40.1925 175.37 40.3758 175.722 40.7425C176.074 41.1092 176.25 41.6922 176.25 42.4915V46.0005H175.15V42.5025C175.15 42.0038 175.065 41.6188 174.897 41.3475C174.728 41.0762 174.402 40.9405 173.918 40.9405C173.61 40.9405 173.346 40.9772 173.126 41.0505C172.913 41.1165 172.715 41.2192 172.532 41.3585V46.0005H171.432V41.4355L171.179 40.2365H171.718ZM181.116 44.7245C181.497 44.8932 181.856 45.0252 182.194 45.1205C182.531 45.2158 182.898 45.2635 183.294 45.2635C183.668 45.2635 183.979 45.1608 184.229 44.9555C184.485 44.7502 184.614 44.4715 184.614 44.1195C184.614 43.8188 184.507 43.5585 184.295 43.3385C184.089 43.1185 183.8 42.9205 183.426 42.7445L182.304 42.2165C181.864 42.0112 181.523 41.7582 181.281 41.4575C181.046 41.1568 180.929 40.7682 180.929 40.2915C180.929 39.8515 181.05 39.4702 181.292 39.1475C181.541 38.8248 181.86 38.5828 182.249 38.4215C182.645 38.2528 183.063 38.1685 183.503 38.1685C183.935 38.1685 184.298 38.2088 184.592 38.2895C184.892 38.3628 185.233 38.4765 185.615 38.6305L185.318 39.4115C184.606 39.1475 183.994 39.0155 183.481 39.0155C182.571 39.0155 182.117 39.3638 182.117 40.0605C182.117 40.3172 182.19 40.5335 182.337 40.7095C182.491 40.8782 182.729 41.0395 183.052 41.1935L184.372 41.8425C185.347 42.3265 185.835 42.9938 185.835 43.8445C185.835 44.3725 185.706 44.8088 185.45 45.1535C185.2 45.4982 184.881 45.7475 184.493 45.9015C184.104 46.0555 183.697 46.1325 183.272 46.1325C182.832 46.1325 182.406 46.0812 181.996 45.9785C181.592 45.8758 181.182 45.7328 180.764 45.5495L181.116 44.7245ZM187.604 39.5765C187.641 39.3638 187.707 39.2062 187.802 39.1035C187.898 39.0008 188.033 38.9495 188.209 38.9495H188.561V40.3245H190.189V41.0835H188.561V44.4055C188.561 44.7135 188.616 44.9482 188.726 45.1095C188.844 45.2708 189.089 45.3515 189.463 45.3515C189.691 45.3515 189.951 45.3222 190.244 45.2635L190.387 45.9895C190.307 46.0188 190.149 46.0482 189.914 46.0775C189.687 46.1142 189.496 46.1325 189.342 46.1325C188.646 46.1325 188.158 45.9822 187.879 45.6815C187.601 45.3735 187.461 44.8785 187.461 44.1965V41.0835H186.625V40.6985L187.461 40.3245L187.604 39.5765ZM193.583 46.1325C192.908 46.1325 192.413 45.9455 192.098 45.5715C191.783 45.1902 191.625 44.6108 191.625 43.8335V40.3245H192.725V43.8225C192.725 44.3065 192.802 44.6878 192.956 44.9665C193.117 45.2452 193.403 45.3845 193.814 45.3845C194.349 45.3845 194.815 45.2452 195.211 44.9665V40.3245H196.311V44.8895L196.564 46.0885H196.025C195.93 46.0885 195.842 46.0665 195.761 46.0225C195.688 45.9858 195.622 45.9125 195.563 45.8025L195.409 45.5165H195.233C195.006 45.7585 194.775 45.9198 194.54 46.0005C194.305 46.0885 193.986 46.1325 193.583 46.1325ZM200.19 46.1325C199.413 46.1325 198.826 45.8758 198.43 45.3625C198.041 44.8492 197.847 44.1232 197.847 43.1845C197.847 42.2458 198.074 41.5125 198.529 40.9845C198.984 40.4565 199.633 40.1925 200.476 40.1925C200.652 40.1925 200.832 40.2145 201.015 40.2585C201.206 40.2952 201.36 40.3355 201.477 40.3795C201.602 40.4162 201.682 40.4418 201.719 40.4565V37.8605H202.819V44.8675L203.083 46.0885H202.555C202.35 46.0885 202.192 45.9932 202.082 45.8025L201.928 45.5165H201.752C201.583 45.7512 201.378 45.9125 201.136 46.0005C200.894 46.0885 200.579 46.1325 200.19 46.1325ZM199.013 43.1735C199.013 43.8702 199.116 44.4128 199.321 44.8015C199.534 45.1902 199.919 45.3845 200.476 45.3845C200.733 45.3845 200.967 45.3442 201.18 45.2635C201.393 45.1755 201.572 45.0692 201.719 44.9445V41.1605C201.69 41.1458 201.62 41.1238 201.51 41.0945C201.407 41.0578 201.264 41.0248 201.081 40.9955C200.898 40.9588 200.696 40.9405 200.476 40.9405C199.941 40.9405 199.563 41.1348 199.343 41.5235C199.123 41.9122 199.013 42.4622 199.013 43.1735ZM204.469 38.3995C204.469 38.2088 204.535 38.0475 204.667 37.9155C204.799 37.7835 204.961 37.7175 205.151 37.7175C205.342 37.7175 205.503 37.7835 205.635 37.9155C205.767 38.0475 205.833 38.2088 205.833 38.3995C205.833 38.5902 205.767 38.7515 205.635 38.8835C205.503 39.0155 205.342 39.0815 205.151 39.0815C204.961 39.0815 204.799 39.0155 204.667 38.8835C204.535 38.7515 204.469 38.5902 204.469 38.3995ZM204.601 40.3245H205.701V46.0005H204.601V40.3245ZM212.463 43.1625C212.463 44.1085 212.243 44.8418 211.803 45.3625C211.363 45.8758 210.695 46.1325 209.801 46.1325C208.913 46.1325 208.25 45.8758 207.81 45.3625C207.37 44.8418 207.15 44.1085 207.15 43.1625C207.15 42.2165 207.37 41.4868 207.81 40.9735C208.25 40.4528 208.913 40.1925 209.801 40.1925C210.695 40.1925 211.363 40.4528 211.803 40.9735C212.243 41.4868 212.463 42.2165 212.463 43.1625ZM209.812 45.3845C210.802 45.3845 211.297 44.6438 211.297 43.1625C211.297 41.6812 210.802 40.9405 209.812 40.9405C209.276 40.9405 208.891 41.1458 208.657 41.5565C208.429 41.9598 208.316 42.4952 208.316 43.1625C208.316 43.8298 208.429 44.3688 208.657 44.7795C208.891 45.1828 209.276 45.3845 209.812 45.3845ZM217.809 44.4055C217.809 44.9922 217.611 45.4285 217.215 45.7145C216.819 45.9932 216.32 46.1325 215.719 46.1325C215.037 46.1325 214.355 45.9638 213.673 45.6265L213.959 44.9445C214.289 45.0838 214.575 45.1938 214.817 45.2745C215.059 45.3478 215.319 45.3845 215.598 45.3845C215.943 45.3845 216.218 45.3222 216.423 45.1975C216.636 45.0655 216.742 44.8528 216.742 44.5595C216.742 44.3542 216.683 44.1892 216.566 44.0645C216.449 43.9398 216.21 43.8042 215.851 43.6575L215.158 43.3825C214.777 43.2358 214.476 43.0415 214.256 42.7995C214.036 42.5575 213.926 42.2422 213.926 41.8535C213.926 41.3402 214.12 40.9368 214.509 40.6435C214.898 40.3428 215.385 40.1925 215.972 40.1925C216.485 40.1925 217.05 40.3098 217.666 40.5445L217.435 41.2375C216.914 41.0395 216.416 40.9405 215.939 40.9405C215.264 40.9405 214.927 41.1972 214.927 41.7105C214.927 41.9158 214.997 42.0772 215.136 42.1945C215.275 42.3045 215.525 42.4365 215.884 42.5905L216.632 42.9205C217.035 43.0965 217.332 43.2982 217.523 43.5255C217.714 43.7455 217.809 44.0388 217.809 44.4055Z" fill="white"/>
</svg>
